<?xml version="1.0" standalone="no"?>
<!DOCTYPE svg PUBLIC "-//W3C//DTD SVG 20010904//EN"
 "http://www.w3.org/TR/2001/REC-SVG-20010904/DTD/svg10.dtd">
<svg version="1.0" xmlns="http://www.w3.org/2000/svg"
 width="626.000000pt" height="417.000000pt" viewBox="0 0 626.000000 417.000000"
 preserveAspectRatio="xMidYMid meet">

<g transform="translate(0.000000,417.000000) scale(0.100000,-0.100000)"
fill="#000000" stroke="none">
<path d="M2680 3730 c0 -16 55 -47 108 -61 48 -12 52 -14 35 -26 -15 -12 -16
-15 -3 -23 19 -12 27 -12 51 1 12 6 18 17 15 25 -4 10 8 17 40 25 58 15 68 32
14 23 -77 -12 -114 -7 -222 31 -21 7 -38 10 -38 5z"/>
<path d="M1800 3565 c0 -10 29 -24 34 -17 3 6 -3 12 -14 15 -11 3 -20 4 -20 2z"/>
<path d="M4297 3531 c6 -7 9 -20 6 -27 -3 -8 1 -14 11 -14 22 0 20 14 -6 36
-13 10 -18 12 -11 5z"/>
<path d="M3530 3508 c13 -12 25 -16 35 -11 10 6 5 11 -21 19 -35 11 -35 11
-14 -8z"/>
<path d="M1430 3360 c-8 -5 -26 -10 -40 -11 -14 0 -19 -3 -12 -6 6 -2 10 -9 6
-14 -11 -18 16 -8 42 16 28 26 30 32 4 15z"/>
<path d="M2629 3324 c-7 -9 -52 -35 -99 -57 -78 -38 -91 -42 -168 -42 -80 0
-82 0 -50 -14 18 -7 52 -14 76 -15 29 -1 41 -5 37 -13 -6 -18 32 -36 61 -29
26 7 33 36 9 36 -23 0 -18 17 8 24 38 9 117 67 133 97 16 32 13 37 -7 13z"/>
<path d="M4743 3287 c2 -7 21 -22 43 -34 21 -13 33 -23 26 -23 -7 0 -10 -4 -7
-10 3 -5 15 -10 26 -10 10 0 19 5 19 10 0 6 10 10 23 10 12 0 29 5 37 10 11 7
2 10 -32 10 -30 0 -63 9 -93 25 -26 13 -45 19 -42 12z"/>
<path d="M3312 3146 c15 -13 37 -31 50 -40 19 -14 21 -18 8 -26 -13 -8 -13
-10 0 -14 36 -14 65 -11 62 5 -2 13 10 20 48 29 72 17 71 29 -2 14 -66 -14
-71 -13 -143 28 -47 27 -48 27 -23 4z"/>
<path d="M4261 3038 c12 -22 15 -22 44 0 l22 18 -37 -1 c-33 0 -37 -2 -29 -17z"/>
<path d="M2015 2933 c-27 -7 -71 -12 -97 -11 -51 3 -56 -6 -8 -15 17 -4 29
-12 28 -19 -2 -8 9 -14 26 -16 26 -3 28 -2 17 12 -11 14 -11 16 3 16 18 0 96
37 96 45 0 6 -4 5 -65 -12z"/>
<path d="M4544 2825 c-72 -51 -142 -109 -157 -128 -25 -34 -156 -137 -173
-137 -5 0 -29 20 -54 44 -73 70 -188 133 -256 141 -47 6 -75 17 -134 55 -41
27 -95 58 -120 69 l-45 20 -27 -47 c-15 -26 -46 -65 -70 -88 -24 -23 -70 -79
-103 -126 -59 -84 -63 -87 -217 -183 -140 -86 -162 -96 -190 -90 -62 12 -139
45 -191 81 l-52 35 -48 -53 c-27 -29 -55 -65 -63 -80 -13 -25 -17 -26 -42 -16
-15 6 -61 44 -102 83 -41 40 -96 84 -122 98 -25 15 -63 49 -83 77 -34 47 -143
140 -162 140 -4 0 -24 -23 -43 -50 -19 -27 -69 -78 -110 -113 -80 -68 -302
-227 -316 -227 -17 1 -83 69 -145 152 -35 45 -93 119 -129 163 -37 44 -90 115
-119 158 -43 64 -55 76 -69 68 -10 -5 -55 -43 -102 -85 -95 -85 -100 -87 -196
-45 -59 25 -59 25 -108 -13 -130 -102 -145 -119 -216 -253 -62 -117 -78 -140
-165 -225 -81 -80 -156 -170 -190 -228 -15 -27 133 89 240 187 93 86 124 123
198 237 75 115 95 140 143 170 45 29 58 33 65 23 11 -18 11 -26 -2 -50 -9 -18
-7 -20 18 -17 25 3 28 0 25 -22 -2 -14 -11 -34 -21 -45 -9 -11 -23 -28 -30
-38 -13 -16 -12 -17 13 -8 57 22 86 53 86 90 0 32 6 40 48 69 26 18 77 62 112
97 36 36 67 65 71 65 9 0 -4 -59 -19 -87 -7 -12 -12 -32 -12 -44 l0 -22 26 23
c21 21 27 22 34 10 5 -8 10 -36 10 -63 0 -41 -5 -53 -38 -90 -21 -23 -50 -59
-66 -80 l-28 -39 42 31 c24 17 48 31 54 31 23 0 4 -74 -29 -115 -18 -22 -40
-62 -49 -90 l-16 -50 57 56 c32 31 79 70 104 87 l46 31 35 -36 c30 -30 38 -33
56 -24 18 9 33 -1 130 -92 61 -56 110 -104 111 -107 0 -3 -37 -36 -83 -75 -46
-38 -98 -93 -116 -121 -19 -28 -42 -57 -52 -63 -39 -24 -450 -251 -507 -280
-33 -17 -70 -31 -81 -31 -20 0 -20 1 -4 25 14 22 15 25 1 19 -17 -6 -57 12
-57 26 0 6 8 10 18 11 10 0 12 3 5 6 -18 7 -16 23 3 23 17 0 74 53 74 69 0 6
-12 4 -27 -5 -33 -17 -57 -18 -47 -3 3 6 0 15 -7 20 -12 7 -11 9 1 9 8 1 2 6
-14 13 -27 12 -28 14 -12 30 16 16 16 17 -2 17 -23 0 -46 25 -37 40 3 5 15 10
25 10 31 0 32 17 2 25 -25 7 -25 8 -7 15 19 7 19 7 -3 14 -17 6 -21 12 -16 32
3 13 2 37 -4 52 -6 15 -13 36 -17 47 -7 17 -9 16 -16 -12 -20 -74 -26 -89 -44
-120 -11 -18 -31 -37 -45 -42 -22 -8 -21 -10 17 -10 62 -1 57 -21 -14 -57 -65
-32 -71 -44 -22 -44 38 0 45 -17 17 -41 l-23 -20 28 5 c15 4 27 3 27 -2 0 -17
-26 -32 -57 -32 -23 0 -31 -4 -27 -14 4 -9 -7 -16 -33 -21 -24 -5 -31 -10 -20
-13 11 -2 16 -10 13 -18 -5 -14 6 -18 54 -15 24 2 24 1 7 -13 -18 -14 -18 -15
5 -18 36 -5 27 -31 -17 -47 -22 -8 -42 -18 -45 -22 -3 -4 -19 -9 -35 -11 l-30
-4 33 -19 c17 -11 30 -25 28 -32 -3 -7 1 -10 11 -6 12 5 14 1 9 -14 -5 -16 -1
-22 19 -27 14 -4 25 -11 25 -17 0 -6 15 -2 34 9 46 27 69 12 23 -17 -19 -11
-39 -21 -46 -21 -6 0 -11 -4 -11 -10 0 -14 -35 -30 -83 -39 l-42 -8 35 -16 35
-16 -25 -10 -25 -10 24 0 c23 -1 24 -2 6 -21 -18 -20 -17 -20 24 -20 23 0 58
7 79 15 l37 15 -25 -21 c-14 -12 -25 -25 -25 -30 0 -19 -47 -40 -96 -42 -47
-1 -50 -2 -25 -12 l26 -11 -27 -12 c-24 -10 -20 -11 32 -6 46 4 56 2 45 -6
-12 -9 -8 -11 19 -7 29 3 32 2 17 -8 -9 -7 -69 -18 -134 -25 -135 -14 -161
-23 -119 -39 16 -6 37 -11 48 -11 11 0 18 -4 14 -9 -3 -6 14 -14 37 -19 38 -9
40 -10 13 -12 l-30 -1 25 -10 c17 -8 41 -7 78 1 57 12 81 7 41 -9 -21 -9 -22
-10 -4 -11 19 -1 19 -2 -3 -12 -12 -6 -22 -15 -22 -20 0 -4 -17 -8 -37 -9 -31
-1 -33 -2 -14 -8 22 -6 21 -7 -15 -22 -22 -9 -59 -21 -84 -27 l-45 -10 48 -1
c35 -1 47 -5 47 -16 0 -12 13 -15 56 -15 47 0 55 -3 52 -17 -3 -15 -16 -19
-68 -21 l-65 -3 40 -19 40 -18 -45 -1 c-25 0 -62 3 -82 8 -39 9 -41 5 -11 -31
15 -17 14 -18 -35 -44 l-27 -14 30 0 c17 0 36 -5 42 -11 14 -14 168 -28 208
-19 17 4 47 5 68 2 l38 -4 -3 -62 -3 -61 -60 -6 c-57 -6 -274 -56 -285 -66 -3
-3 29 -2 70 1 41 4 102 9 135 12 75 6 57 -7 -43 -31 -105 -25 -83 -28 33 -4
117 23 199 27 390 17 138 -7 139 -7 68 7 -39 7 -105 23 -145 36 -40 12 -79 23
-85 25 -9 2 -13 25 -13 69 l0 66 37 -7 c21 -4 45 -10 54 -15 19 -10 312 25
356 42 105 40 237 47 403 23 147 -21 474 -28 664 -15 88 6 161 9 163 7 2 -2
-24 -13 -59 -25 -35 -11 -49 -18 -33 -16 205 28 310 28 525 -1 50 -6 -79 39
-188 67 -106 26 -230 23 -392 -11 -82 -17 -122 -21 -185 -15 -44 3 -152 10
-240 14 -88 5 -198 17 -245 26 -120 24 -228 23 -323 -3 -80 -23 -217 -30 -217
-12 0 6 8 10 18 10 9 0 25 7 34 14 15 11 6 12 -59 8 -55 -3 -74 -2 -69 7 4 6
14 11 23 11 9 0 -5 14 -30 31 -64 42 -66 50 -11 42 34 -4 45 -3 40 5 -4 8 0
12 12 12 10 0 27 9 37 20 17 19 17 20 0 20 -31 0 -90 21 -116 42 l-24 19 30
-5 c17 -4 44 -2 60 3 l30 8 -27 13 c-23 11 -26 16 -15 28 10 13 8 14 -15 8
-31 -7 -33 -4 -17 26 11 20 9 21 -26 15 -27 -4 -36 -3 -32 7 3 8 -3 11 -23 8
-15 -2 -31 1 -35 8 -12 20 162 1 240 -27 149 -51 182 -61 235 -67 l55 -7 -59
37 -60 38 76 13 c42 7 123 28 180 48 123 42 146 43 218 9 68 -31 152 -54 202
-54 21 0 38 -3 38 -7 0 -15 -71 -53 -148 -82 -68 -24 -164 -70 -121 -57 36 10
247 55 290 61 42 6 59 2 161 -44 132 -58 192 -74 373 -95 218 -26 230 -27 224
-22 -6 7 -169 41 -241 51 -27 4 -48 12 -48 17 0 6 14 8 35 4 44 -9 140 4 111
14 -15 5 -8 10 30 24 66 25 72 32 22 28 -26 -3 -38 -1 -34 6 3 6 -5 19 -19 30
-30 24 -32 36 -5 27 12 -4 28 -1 36 5 11 10 28 8 82 -8 37 -11 90 -23 117 -26
l50 -6 -52 30 c-29 17 -53 34 -53 39 0 5 72 8 163 6 89 -2 151 -2 137 1 -14 3
-61 11 -105 20 -177 33 -205 47 -211 99 -3 29 -18 45 -35 40 -15 -5 -19 -1
-19 19 0 23 -19 39 -21 19 -2 -22 -10 -57 -14 -61 -2 -2 -9 -1 -15 3 -8 5 -8
10 0 20 7 9 8 14 0 17 -5 1 -12 13 -15 26 -7 36 -17 47 -27 28 -11 -19 -49
-22 -46 -4 2 7 8 16 13 20 6 4 -2 8 -17 8 -29 0 -50 21 -29 28 16 5 71 62 71
73 0 4 -9 5 -20 2 -11 -3 -20 0 -20 6 0 6 -11 11 -24 11 -34 0 -40 15 -11 30
13 7 21 18 18 26 -3 8 -1 14 4 14 4 0 13 8 19 18 10 16 8 17 -24 14 -26 -3
-33 -1 -27 8 4 7 2 16 -6 21 -20 12 -19 47 1 52 10 3 23 14 30 27 11 20 10 21
-11 10 -24 -13 -34 -5 -45 38 -3 12 -10 22 -15 22 -5 0 -9 5 -9 10 0 6 8 10
17 10 15 0 14 2 -3 15 -10 8 -14 15 -8 15 8 0 6 12 -5 36 l-16 35 -22 -28
c-13 -15 -23 -33 -23 -40 0 -6 -8 -14 -17 -16 -11 -3 -7 -5 10 -6 39 -1 34
-16 -14 -39 -41 -21 -42 -21 -15 -28 25 -6 37 -24 16 -24 -5 0 -10 -4 -10 -10
0 -5 8 -6 18 -3 15 6 15 5 3 -10 -7 -9 -20 -17 -27 -17 -8 0 -14 -4 -14 -10 0
-5 -9 -10 -20 -10 -13 0 -18 -5 -14 -15 4 -8 17 -15 31 -15 13 0 22 -4 19 -9
-4 -5 0 -11 6 -14 19 -7 -3 -26 -47 -41 l-38 -13 27 -18 c15 -10 25 -24 22
-31 -3 -8 1 -14 9 -14 8 0 15 -5 15 -10 0 -7 7 -7 23 0 21 10 21 10 -3 -10
-22 -19 -25 -20 -36 -6 -10 14 -13 12 -24 -14 -7 -16 -16 -30 -21 -30 -5 0 -6
-8 -2 -17 3 -10 3 -15 -1 -11 -4 3 -9 12 -10 20 -5 25 -18 73 -28 107 -8 27
-12 31 -19 18 -5 -9 -11 -33 -14 -54 -10 -93 -31 -115 -40 -44 -9 77 -31 89
-40 22 -2 -18 -7 -47 -11 -64 -8 -36 -13 -81 -14 -115 0 -32 -16 -19 -25 20
-11 47 -12 52 -13 66 -3 21 -21 13 -28 -13 -6 -24 -27 -26 -22 -2 1 7 -4 39
-11 71 -9 42 -16 55 -22 45 -9 -14 -32 -85 -33 -103 -2 -23 -26 -15 -32 11
-13 62 -15 65 -29 53 -16 -14 -19 -9 -35 60 l-13 55 -15 -35 c-13 -32 -15 -33
-25 -15 -6 11 -11 27 -12 35 -1 8 -6 28 -10 44 -7 26 -9 27 -19 10 -11 -20
-14 -31 -23 -76 -3 -16 -9 -28 -14 -28 -7 0 -25 52 -35 103 -12 67 -30 75 -39
20 -3 -21 -9 -49 -12 -63 -4 -14 -7 -38 -9 -53 -3 -50 -11 -39 -23 35 -18 110
-25 111 -50 9 -11 -49 -21 -97 -21 -107 0 -33 -11 -6 -15 36 -9 98 -18 151
-26 156 -5 3 -9 -1 -10 -8 -2 -39 -10 -81 -19 -98 -6 -11 -10 -23 -9 -27 1 -4
1 -15 0 -23 -1 -12 -5 -11 -17 5 -14 19 -15 19 -20 -3 -9 -32 -21 -27 -28 13
-4 19 -11 37 -16 40 -13 8 -35 -61 -44 -138 -7 -63 -16 -61 -31 7 -10 48 -23
22 -39 -79 -2 -11 -4 -26 -5 -34 -2 -20 -16 -3 -18 22 -7 64 -41 192 -50 184
-6 -7 -24 -116 -24 -149 0 -15 -4 -30 -9 -33 -6 -4 -10 0 -10 7 0 27 -21 88
-30 88 -6 0 -13 -18 -16 -40 -6 -36 -22 -55 -25 -30 -1 6 -2 13 -4 18 -1 4 -5
21 -9 37 -15 58 -17 62 -28 35 -5 -14 -12 -43 -15 -65 -7 -61 -13 -59 -27 7
-7 31 -26 38 -26 10 0 -10 -3 -22 -7 -25 -3 -4 -8 -22 -10 -39 -6 -58 -9 -61
-59 -55 -46 5 -84 35 -62 48 7 4 3 9 -8 12 -10 3 10 4 46 2 61 -4 63 -4 36 9
l-29 13 29 11 c29 10 28 10 -12 10 -22 0 -60 9 -85 20 l-44 20 43 1 c23 1 42
6 42 11 0 6 12 10 26 10 14 0 23 4 20 9 -3 4 4 17 15 27 12 10 28 32 36 47 14
28 14 29 -9 22 -13 -4 -29 -10 -37 -13 -10 -4 -12 1 -7 16 7 21 6 21 -21 7
-37 -19 -63 -19 -92 1 l-24 17 24 13 c13 7 32 13 42 14 9 0 17 7 17 15 0 8 9
15 20 15 12 0 17 5 14 13 -2 7 15 31 38 54 42 41 48 43 190 74 l147 32 98 82
c54 46 122 113 151 149 46 58 110 106 142 106 6 0 -1 -22 -14 -49 l-25 -49 37
-6 c20 -3 60 -6 89 -6 45 0 58 -5 101 -40 28 -21 53 -44 57 -50 3 -5 38 -10
78 -9 l72 0 -48 15 c-35 11 -51 22 -59 42 -6 15 -36 59 -66 99 l-54 72 13 58
c7 32 14 60 16 62 1 2 27 -12 58 -32 30 -21 57 -37 60 -37 2 0 -12 27 -31 61
l-36 60 38 55 c20 30 39 54 42 54 2 0 29 -14 58 -30 69 -40 151 -150 175 -235
l16 -60 74 -6 c41 -4 94 -14 118 -23 24 -9 46 -15 48 -13 1 2 -26 24 -62 48
-54 37 -76 62 -141 160 -67 102 -83 119 -133 147 -100 55 -99 53 -45 90 l47
33 46 -28 c25 -16 60 -37 76 -47 17 -10 -13 23 -65 73 l-95 91 45 40 45 39 33
-32 34 -32 -20 40 c-24 48 -43 115 -33 115 4 0 53 -53 109 -118 55 -64 121
-133 147 -152 44 -33 45 -35 23 -40 -26 -7 -26 -6 62 -53 35 -18 65 -38 67
-44 2 -6 -16 -14 -39 -18 l-43 -7 100 -48 c55 -26 113 -61 128 -76 28 -29 61
-83 55 -89 -2 -2 -28 12 -58 30 -30 19 -58 35 -62 35 -4 0 4 -16 17 -36 25
-37 58 -118 77 -190 l12 -42 140 -42 c136 -41 240 -69 261 -70 6 0 -48 35
-119 78 -128 76 -130 78 -168 147 -39 72 -50 135 -24 135 8 0 37 -16 66 -35
l52 -35 -43 51 c-23 27 -58 62 -77 77 -19 15 -41 41 -48 59 -18 43 -18 46 7
38 l22 -7 -22 30 c-19 28 -29 72 -15 72 3 0 25 -15 47 -33 l41 -32 -43 57
c-36 49 -70 128 -54 128 3 0 42 -34 86 -76 61 -57 106 -88 175 -122 88 -43 92
-46 92 -78 0 -29 6 -37 45 -59 24 -15 59 -31 77 -36 18 -5 78 -45 133 -89 55
-44 109 -80 120 -80 11 0 31 -3 45 -6 24 -6 -20 26 -219 162 -83 57 -84 58
-62 75 13 11 21 29 21 48 0 17 2 31 4 31 3 0 66 -40 140 -88 120 -78 144 -99
214 -183 43 -51 97 -120 120 -151 23 -31 61 -70 84 -86 98 -66 158 -101 158
-92 0 6 -42 52 -93 103 -52 50 -105 112 -119 137 -47 82 -145 200 -205 244
-71 55 -295 257 -299 271 -5 19 98 95 130 95 20 0 41 10 63 32 l32 31 37 -19
c20 -10 63 -43 96 -71 32 -29 61 -53 63 -53 2 0 -3 12 -11 28 -7 15 -14 31
-14 36 0 5 -16 28 -35 52 -36 44 -47 94 -21 94 8 0 29 -12 47 -27 28 -24 30
-24 21 -6 -14 26 -60 63 -78 63 -7 0 -16 5 -19 10 -10 16 5 50 22 50 14 0 14
2 0 18 -32 35 -11 72 21 40 18 -18 16 33 -3 58 -14 18 -21 64 -9 64 6 0 136
-113 161 -140 8 -8 24 -31 36 -50 15 -24 45 -47 97 -73 41 -21 99 -59 130 -85
53 -45 54 -45 29 -12 -14 19 -34 48 -45 63 -10 15 -41 39 -69 53 -72 37 -114
93 -59 80 23 -6 24 -5 14 14 -19 36 -1 22 67 -52 37 -40 127 -134 199 -208 72
-74 151 -164 174 -200 44 -65 199 -260 207 -260 3 0 -6 19 -20 43 -13 23 -53
96 -87 162 -35 66 -73 129 -86 140 -12 11 -27 38 -33 60 -9 34 -8 44 8 65 22
31 50 36 119 20 54 -12 95 -50 104 -95 2 -11 10 -20 18 -20 31 0 92 -64 131
-136 41 -77 42 -72 5 37 -21 64 -70 135 -148 217 -52 54 -52 106 -1 86 25 -9
25 -9 -7 33 -23 32 -27 44 -17 46 8 2 22 22 31 45 9 23 24 52 34 65 l17 22 52
-35 c29 -19 55 -35 58 -35 3 0 -3 17 -14 38 -19 38 -43 113 -37 119 2 2 49
-50 106 -116 56 -65 122 -134 146 -152 49 -36 55 -49 23 -49 -49 0 20 -51 116
-86 l30 -11 -45 -10 -45 -10 102 -50 c75 -36 111 -60 137 -92 20 -24 36 -49
36 -57 0 -16 -12 -11 -84 34 l-40 25 33 -42 c25 -31 32 -48 27 -66 -6 -23 1
-28 81 -69 49 -24 102 -59 118 -76 17 -18 64 -48 105 -67 104 -48 147 -66 135
-55 -5 5 -57 49 -115 99 -145 126 -188 172 -191 208 -5 45 27 44 91 -4 l34
-26 -22 32 c-12 18 -47 54 -77 80 -45 40 -75 84 -75 110 0 3 9 3 20 0 20 -5
20 -5 -1 24 -11 16 -19 40 -17 55 l3 25 45 -38 44 -38 -42 56 c-39 52 -68 116
-57 127 2 2 39 -28 82 -67 55 -51 107 -87 176 -122 97 -49 98 -50 95 -84 -2
-29 5 -42 37 -75 21 -22 47 -40 57 -40 9 0 70 -32 135 -71 82 -50 132 -73 167
-79 45 -7 48 -6 30 7 -10 8 -64 37 -119 65 -60 30 -119 68 -147 95 l-47 46 6
71 c3 39 7 72 8 74 3 3 136 -90 223 -156 64 -49 30 1 -80 114 -95 98 -191 174
-220 174 -4 0 -14 -13 -23 -30 -8 -16 -29 -37 -45 -45 -28 -15 -33 -14 -79 10
-52 26 -210 133 -247 166 -11 10 -25 19 -31 19 -14 0 -65 -58 -109 -125 l-35
-53 -37 15 c-25 10 -74 56 -152 144 -63 71 -140 148 -170 171 -30 22 -71 56
-90 74 l-35 33 -131 -94z m-17 -78 c-20 -24 -39 -61 -43 -83 -14 -77 -19 -84
-55 -74 -25 8 -39 6 -57 -6 -13 -9 -26 -14 -28 -11 -3 3 11 15 31 27 19 12 44
39 54 59 18 34 111 131 127 131 3 0 -10 -19 -29 -43z m-3167 -159 c36 -45 38
-54 5 -32 l-24 16 9 -32 c5 -18 15 -42 23 -54 47 -73 47 -79 -1 -29 -52 54
-51 54 -79 193 l-4 25 20 -25 c12 -14 35 -42 51 -62z m3861 -91 c-7 -17 -6
-35 2 -56 15 -41 2 -50 -29 -19 l-26 25 27 43 c28 45 42 49 26 7z m499 -83 l0
-45 -24 28 c-16 18 -20 29 -13 32 7 2 16 10 20 17 13 23 17 16 17 -32z m-2506
-54 l-27 -41 22 -29 c29 -40 13 -38 -28 4 -22 23 -39 32 -52 29 -34 -9 -20 6
24 25 23 10 48 26 56 35 27 34 31 16 5 -23z m-2841 -1367 c-7 -2 -21 -2 -30 0
-10 3 -4 5 12 5 17 0 24 -2 18 -5z m1883 -80 c45 -7 47 -8 19 -14 l-30 -6 25
-11 c21 -9 16 -11 -40 -11 -48 -1 -74 4 -97 19 -18 11 -33 22 -33 25 0 7 99 6
156 -2z"/>
<path d="M2680 2839 c0 -5 4 -9 10 -9 5 0 23 -14 40 -30 17 -17 35 -28 41 -25
5 4 7 10 4 15 -6 10 19 20 55 20 16 0 31 3 33 8 3 4 -17 5 -44 4 -27 -2 -69 3
-94 11 -25 9 -45 12 -45 6z"/>
<path d="M4830 1938 c0 -4 25 -49 55 -99 l55 -92 -27 -29 c-29 -31 -25 -32 47
-18 35 6 55 4 94 -11 53 -20 73 -19 34 2 -12 7 -76 67 -140 133 -64 67 -117
118 -118 114z"/>
<path d="M5471 1895 c-1 -11 -7 -29 -15 -40 -7 -11 -12 -28 -10 -38 1 -9 -6
-23 -17 -30 -10 -8 -16 -17 -12 -20 3 -4 1 -7 -6 -7 -7 0 -10 -4 -7 -9 3 -5
-6 -12 -22 -17 -26 -7 -26 -8 12 -13 41 -6 63 -31 28 -31 -11 0 -25 -7 -32
-15 -7 -8 -28 -17 -48 -21 -33 -6 -34 -8 -17 -20 10 -8 28 -14 40 -14 35 0 37
-12 8 -33 l-28 -19 28 6 c28 7 33 1 18 -23 -6 -10 -20 -12 -47 -8 -28 5 -34 3
-26 -5 9 -9 4 -15 -20 -25 -26 -11 -30 -16 -18 -23 8 -5 11 -10 5 -10 -5 0 -3
-5 5 -10 8 -6 29 -8 45 -5 28 6 29 5 11 -10 -19 -15 -19 -15 1 -15 46 0 34
-30 -17 -45 -14 -4 -32 -13 -40 -20 -8 -7 -26 -15 -39 -17 -24 -3 -24 -3 5
-18 41 -21 55 -36 48 -53 -4 -11 2 -16 18 -19 21 -3 24 -10 19 -48 -2 -13 -40
-33 -81 -40 l-35 -7 34 -13 c31 -12 33 -14 15 -21 -19 -7 -19 -8 1 -9 19 -1
19 -2 -4 -20 l-23 -20 45 0 c25 0 58 5 73 10 37 14 42 5 7 -14 -15 -8 -21 -15
-13 -16 9 0 2 -9 -15 -20 -19 -12 -49 -20 -80 -21 -27 -1 -40 -4 -27 -6 12 -2
22 -8 22 -13 0 -5 -10 -11 -22 -14 -13 -3 4 -3 37 -1 39 3 55 1 45 -5 -11 -7
-8 -10 13 -10 18 0 26 -4 21 -11 -7 -12 -80 -4 -123 13 -14 6 -33 11 -41 10
-11 -1 -11 0 -2 4 9 4 10 9 2 19 -6 7 -13 28 -16 46 -9 57 -10 62 -28 122 -10
31 -21 57 -26 57 -5 0 -14 -26 -20 -57 -17 -81 -18 -85 -31 -77 -6 3 -9 17 -6
31 2 13 -4 48 -13 76 -10 29 -21 69 -25 91 -5 28 -9 36 -18 27 -6 -6 -12 -16
-14 -23 -1 -7 -7 -31 -13 -53 -6 -22 -13 -56 -14 -75 -4 -47 -5 -48 -18 -26
-8 15 -8 21 0 24 8 2 7 12 -4 34 -8 16 -13 32 -10 35 3 3 -1 18 -9 34 -8 15
-15 38 -15 51 -1 13 -7 36 -14 53 l-12 29 -16 -49 c-20 -65 -32 -124 -29 -152
1 -13 -3 -23 -9 -23 -6 0 -10 8 -8 18 1 9 -1 22 -5 29 -4 6 -9 24 -11 40 -2
15 -8 39 -14 53 l-10 25 -10 -25 c-11 -27 -11 -28 -32 50 l-13 45 -12 -30 c-7
-16 -11 -33 -8 -38 7 -12 -8 -68 -17 -62 -5 3 -7 11 -4 18 2 7 -2 28 -9 46
l-14 33 -11 -44 c-13 -51 -24 -98 -28 -116 -1 -8 -6 -17 -9 -20 -4 -4 -6 0 -4
8 2 8 -3 32 -10 52 -7 21 -10 42 -7 47 3 5 0 25 -7 46 l-13 37 -12 -41 c-7
-22 -17 -60 -23 -83 -19 -73 -19 -72 -30 -61 -6 6 -12 24 -14 40 -3 39 -15 73
-25 73 -8 0 -22 -32 -25 -55 -2 -16 -17 -69 -23 -79 -3 -5 -9 1 -14 15 -6 15
-5 25 1 27 6 2 3 19 -9 43 -11 21 -16 39 -10 39 6 0 4 10 -5 23 -8 13 -17 38
-19 57 -7 57 -16 72 -32 59 -8 -6 -14 -22 -14 -35 0 -12 -4 -25 -8 -28 -5 -3
-9 -19 -10 -35 0 -16 -5 -39 -11 -50 -6 -10 -7 -21 -2 -23 4 -2 5 -12 1 -23
-5 -15 -11 -6 -24 40 -10 33 -23 75 -28 94 l-11 34 -13 -33 c-8 -17 -12 -36
-9 -40 3 -5 0 -21 -6 -37 -7 -15 -11 -43 -10 -60 1 -18 -3 -33 -8 -33 -6 0
-10 12 -10 28 0 28 -2 43 -16 100 -8 36 -24 43 -26 12 -2 -23 -1 -19 -18 -87
-15 -59 -30 -70 -31 -20 0 33 -5 78 -10 87 -4 7 -7 22 -10 45 -2 23 -7 9 -31
-77 -13 -46 -27 -63 -30 -35 -5 46 -7 55 -13 65 -4 6 -9 27 -11 45 -3 19 -8
45 -13 58 l-9 23 -12 -22 c-6 -12 -9 -22 -6 -22 3 0 1 -10 -6 -21 -6 -12 -13
-36 -14 -53 -2 -17 -6 -53 -9 -81 -4 -27 -7 -59 -7 -70 l-1 -20 -9 20 c-4 11
-14 40 -20 65 l-12 45 -10 -37 c-9 -39 -26 -51 -29 -20 -2 27 -4 35 -16 65 -7
15 -11 31 -10 35 3 14 -14 62 -23 62 -4 0 -11 -17 -14 -37 -3 -21 -8 -49 -11
-63 -2 -14 -7 -43 -10 -65 -3 -22 -6 -51 -8 -65 -2 -14 -4 -31 -5 -38 -2 -25
-19 -2 -30 43 -6 25 -15 45 -20 45 -13 0 -48 -157 -42 -187 1 -7 1 -13 -1 -14
-2 0 -75 -13 -163 -29 l-160 -28 130 -1 c72 -1 173 -8 225 -15 59 -9 139 -12
210 -9 114 6 116 5 177 -25 68 -35 155 -52 253 -51 l65 1 -61 21 c-34 12 -72
30 -85 39 -24 17 -23 17 46 17 39 1 124 -10 190 -24 76 -16 153 -25 210 -25
50 0 106 -5 125 -11 19 -6 127 -14 240 -18 166 -6 200 -9 180 -18 -24 -11 -23
-12 15 -12 22 0 58 4 80 9 45 10 59 5 24 -9 -21 -9 -22 -10 -4 -11 17 -1 15
-4 -8 -14 -15 -7 -24 -15 -21 -19 4 -4 -10 -8 -32 -8 -28 -1 -32 -3 -14 -6 23
-5 21 -7 -20 -24 -25 -10 -65 -18 -90 -19 -35 -1 -40 -3 -25 -10 11 -5 36 -9
55 -9 23 -1 30 -4 22 -10 -9 -5 3 -10 33 -14 26 -4 52 -4 57 -1 6 4 14 0 19
-7 12 -20 -9 -29 -71 -30 -53 -1 -54 -1 -22 -11 53 -18 38 -32 -26 -25 -32 4
-67 10 -77 13 -13 6 -16 4 -10 -6 6 -10 -1 -11 -31 -7 -86 14 -412 19 -499 8
-49 -6 -197 -24 -329 -41 -131 -16 -347 -37 -480 -45 -132 -9 -243 -18 -245
-21 -2 -2 115 -4 260 -5 257 -1 263 -1 219 -17 l-45 -16 50 -7 c101 -14 201 1
440 69 177 50 250 66 317 70 97 5 238 -5 238 -18 0 -4 -35 -11 -77 -14 -63 -6
-220 -44 -210 -52 1 -1 79 4 172 10 98 7 189 9 215 4 25 -5 51 -6 58 -3 7 3
10 1 7 -4 -3 -5 3 -12 13 -15 26 -9 167 -10 180 -2 6 3 14 1 17 -5 4 -6 18 -8
31 -5 13 4 24 2 24 -3 0 -6 -28 -11 -62 -13 l-63 -3 99 -48 c55 -26 97 -49 95
-52 -3 -2 -45 2 -94 10 -86 14 -264 21 -253 10 13 -13 232 -56 313 -61 50 -4
167 -3 260 1 l170 8 -145 20 c-162 21 -210 36 -210 65 0 17 11 20 113 26 61 4
179 18 262 32 82 13 165 24 185 25 29 0 31 2 15 9 -11 5 -38 9 -61 9 -23 1
-62 4 -88 7 l-46 7 0 56 0 56 68 0 c37 0 76 4 87 9 19 8 19 9 -5 16 l-25 8 27
1 c14 1 39 8 55 15 15 8 37 18 48 23 15 5 5 9 -35 13 -30 4 -46 7 -36 8 15 2
12 6 -14 24 -43 30 -48 46 -13 41 17 -2 38 4 53 16 24 19 24 20 5 26 -11 4
-36 14 -55 23 l-35 17 38 3 c38 3 49 15 21 26 -8 3 -12 10 -9 16 3 6 -4 10
-16 10 -18 0 -20 3 -11 12 19 19 15 23 -29 25 -23 0 -46 6 -53 13 -8 9 -3 11
24 9 19 -1 46 -1 60 0 l25 2 -25 12 -25 11 27 3 c15 3 42 12 61 21 l35 17 -75
2 c-76 2 -110 16 -110 47 0 10 11 13 41 10 23 -2 33 -1 23 2 -9 3 -15 9 -12
14 3 4 -7 11 -22 15 -14 3 -36 13 -47 21 -20 13 -19 14 11 14 23 0 40 10 72
45 45 48 54 73 22 55 -25 -13 -44 -13 -36 0 8 13 3 13 -31 0 -21 -8 -31 -7
-45 6 -21 19 -16 34 12 34 11 0 22 7 25 15 4 8 14 15 23 16 10 0 12 2 3 6 -9
3 -5 13 13 35 29 35 33 53 8 43 -40 -17 -63 -18 -58 -3 4 9 -4 19 -22 28 -15
7 -23 15 -16 17 7 2 9 11 6 19 -3 8 1 14 9 14 16 0 58 40 58 55 0 5 -5 4 -12
-3 -14 -14 -52 -16 -43 -2 3 6 1 10 -5 10 -6 0 -9 4 -6 9 3 5 -1 11 -9 15 -8
3 -12 12 -9 19 3 8 -1 17 -9 20 -9 3 -18 27 -22 59 -10 76 -19 88 -38 52 -9
-16 -19 -37 -23 -46 -3 -9 -16 -19 -28 -21 -14 -3 -11 -5 10 -6 35 -1 57 -31
24 -31 -11 0 -20 -3 -20 -8 0 -4 -14 -14 -32 -21 l-32 -15 29 -9 c40 -13 41
-15 19 -32 -18 -14 -18 -14 5 -15 20 0 22 -2 10 -16 -8 -9 -21 -13 -35 -10
-17 5 -22 3 -18 -8 3 -9 -4 -16 -21 -20 -23 -6 -24 -8 -11 -21 8 -8 24 -15 36
-15 12 0 19 -4 16 -9 -3 -5 1 -11 9 -15 25 -9 17 -24 -20 -37 -19 -7 -35 -17
-35 -21 0 -4 -10 -8 -22 -8 -22 0 -22 -1 5 -25 15 -14 27 -31 27 -38 0 -7 11
-17 25 -23 19 -9 27 -9 36 2 15 18 29 18 29 0 0 -8 -8 -17 -19 -21 -10 -3 -29
-14 -41 -25 -25 -22 -50 -26 -50 -10 0 7 -6 7 -19 0 -29 -15 -51 -13 -45 5 5
12 0 12 -35 -2 -37 -15 -42 -14 -66 1 -34 23 -31 34 11 42 19 4 38 13 41 20 3
8 15 14 27 15 18 0 19 1 3 7 -16 7 -14 11 13 37 16 16 30 36 30 46 0 15 -3 15
-44 1 -48 -18 -67 -12 -46 13 10 13 9 15 -7 15 -27 0 -59 25 -44 34 6 4 9 11
6 16 -3 5 5 12 19 16 26 6 73 50 64 60 -4 3 -15 1 -26 -5 -25 -13 -55 -14 -47
-2 3 5 0 13 -6 17 -8 4 -7 9 2 15 10 6 8 9 -8 9 -24 0 -31 14 -12 26 7 4 -1
12 -21 20 -27 12 -30 16 -20 29 7 8 21 15 31 15 26 0 24 16 -3 24 -17 4 -20 8
-10 15 10 6 8 10 -10 15 -14 4 -19 9 -12 13 13 9 12 36 -3 73 -6 14 -13 32
-16 40 -4 11 -6 9 -6 -5z m260 -672 c-11 -5 -11 -7 0 -14 11 -7 10 -11 -6 -23
-19 -15 -19 -15 8 -16 15 0 43 6 62 14 l35 15 -21 -28 c-26 -36 -51 -47 -120
-56 -42 -5 -64 -3 -97 11 -51 23 -54 35 -7 27 23 -4 35 -2 35 6 0 6 11 11 25
11 14 0 24 4 23 9 -5 15 36 50 57 50 12 -1 15 -3 6 -6z m-21 -124 c-11 -8 -6
-9 22 -7 20 2 34 0 32 -4 -3 -4 5 -8 18 -9 l23 0 -25 -12 c-14 -6 -27 -14 -30
-18 -12 -15 -115 -18 -140 -4 -15 9 -19 14 -10 15 13 0 13 1 0 11 -11 7 2 8
45 4 57 -5 59 -4 30 9 l-30 14 25 5 c49 9 57 8 40 -4z m57 -150 c-12 -7 -30
-8 -55 -1 -37 10 -37 10 18 11 43 0 51 -2 37 -10z m-85 -25 c41 -7 42 -24 2
-24 -15 0 -23 4 -19 10 4 7 -2 9 -18 4 -14 -3 -34 -1 -44 5 -16 9 -14 10 12
11 17 0 47 -3 67 -6z m144 -228 c19 -20 18 -72 -2 -80 -25 -10 -84 -7 -84 4 0
6 8 10 17 10 11 0 3 10 -22 27 l-40 28 47 5 c26 3 50 9 54 13 10 10 13 9 30
-7z m12 -118 c-5 -15 -64 -27 -123 -26 -41 0 -37 2 28 13 21 3 35 10 32 16 -4
5 10 9 30 9 25 0 35 -4 33 -12z m-268 -58 c12 -8 9 -10 -12 -10 -15 0 -30 5
-33 10 -8 13 25 13 45 0z"/>
<path d="M3655 743 c-11 -3 -89 -13 -175 -23 -110 -12 -138 -18 -95 -19 33 0
119 5 190 13 75 8 205 12 310 10 132 -2 171 -1 145 7 -39 11 -344 21 -375 12z"/>
<path d="M2255 509 c-193 -26 -193 -28 -9 -21 137 4 173 2 240 -14 l79 -19
-125 -7 c-243 -14 -417 -29 -595 -54 -187 -25 -401 -61 -376 -63 8 -1 139 11
290 26 257 26 308 27 746 27 342 0 537 -5 715 -17 135 -9 279 -19 320 -22 110
-7 -221 40 -425 60 -253 25 -285 32 -150 35 61 2 99 4 85 6 -14 2 -79 11 -145
20 -66 9 -173 27 -239 40 -140 28 -217 29 -411 3z"/>
<path d="M1418 323 c6 -2 18 -2 25 0 6 3 1 5 -13 5 -14 0 -19 -2 -12 -5z"/>
</g>
</svg>
